HIERARCHY
ROOT Character1_Hips
{
  OFFSET -289.603 97.9511 199.898
  CHANNELS 6 Xposition Yposition Zposition Zrotation Xrotation Yrotation
  JOINT Character1_LeftUpLeg
  {
    OFFSET 8.91 -6.27 0
    CHANNELS 3 Zrotation Xrotation Yrotation
    JOINT Character1_LeftLeg
    {
      OFFSET 0 -44.8786 0
      CHANNELS 3 Zrotation Xrotation Yrotation
      JOINT Character1_LeftFoot
      {
        OFFSET 0 -40.701 0
        CHANNELS 3 Zrotation Xrotation Yrotation
        JOINT Character1_LeftToeBase
        {
          OFFSET 0 -6.26232 12.9547
          CHANNELS 3 Zrotation Xrotation Yrotation
          End Site
          {
            OFFSET 0 0 0
          }
        }
        JOINT FootL
        {
          OFFSET 0.33955 -3.96966 6.32777
          CHANNELS 3 Zrotation Xrotation Yrotation
          End Site
          {
            OFFSET 0 0 0
          }
        }
      }
      JOINT LegLBox
      {
        OFFSET 0.33955 -20.2705 0.090831
        CHANNELS 3 Zrotation Xrotation Yrotation
        End Site
        {
          OFFSET 0 0 0
        }
      }
    }
    JOINT UpLegLBox
    {
      OFFSET -0.339774 -23.0643 0.090831
      CHANNELS 3 Zrotation Xrotation Yrotation
      End Site
      {
        OFFSET 0 0 0
      }
    }
  }
  JOINT Character1_RightUpLeg
  {
    OFFSET -8.91 -6.27 0
    CHANNELS 3 Zrotation Xrotation Yrotation
    JOINT Character1_RightLeg
    {
      OFFSET 0 -44.8786 0.000439024
      CHANNELS 3 Zrotation Xrotation Yrotation
      JOINT Character1_RightFoot
      {
        OFFSET 0 -40.701 0
        CHANNELS 3 Zrotation Xrotation Yrotation
        JOINT Character1_RightToeBase
        {
          OFFSET 0 -6.26232 12.9547
          CHANNELS 3 Zrotation Xrotation Yrotation
          End Site
          {
            OFFSET 0 0 0
          }
        }
        JOINT FootRBox
        {
          OFFSET -0.339467 -3.96966 6.32736
          CHANNELS 3 Zrotation Xrotation Yrotation
          End Site
          {
            OFFSET 0 0 0
          }
        }
      }
      JOINT LegRBox
      {
        OFFSET -0.339996 -20.2705 0.090392
        CHANNELS 3 Zrotation Xrotation Yrotation
        End Site
        {
          OFFSET 0 0 0
        }
      }
    }
    JOINT UpLegRBox
    {
      OFFSET 0.340001 -23.0643 0.090831
      CHANNELS 3 Zrotation Xrotation Yrotation
      End Site
      {
        OFFSET 0 0 0
      }
    }
  }
  JOINT Character1_Spine
  {
    OFFSET 0 7 0
    CHANNELS 3 Zrotation Xrotation Yrotation
    JOINT Character1_Spine1
    {
      OFFSET 0 12.6667 0
      CHANNELS 3 Zrotation Xrotation Yrotation
      JOINT Character1_Spine2
      {
        OFFSET 0 12.6667 0
        CHANNELS 3 Zrotation Xrotation Yrotation
        JOINT Character1_LeftShoulder
        {
          OFFSET 7 14.2552 0
          CHANNELS 3 Zrotation Xrotation Yrotation
          JOINT Character1_LeftArm
          {
            OFFSET 10.7073 0 0
            CHANNELS 3 Zrotation Xrotation Yrotation
            JOINT Character1_LeftForeArm
            {
              OFFSET 27.3055 0 0
              CHANNELS 3 Zrotation Xrotation Yrotation
              JOINT Character1_LeftHand
              {
                OFFSET 26.6971 0 0
                CHANNELS 3 Zrotation Xrotation Yrotation
                JOINT Character1_LeftHandThumb1
                {
                  OFFSET 4.34876 -0.798503 4.28243
                  CHANNELS 3 Zrotation Xrotation Yrotation
                  JOINT Character1_LeftHandThumb2
                  {
                    OFFSET 2.51259 -0.536099 0.707454
                    CHANNELS 3 Zrotation Xrotation Yrotation
                    JOINT Character1_LeftHandThumb3
                    {
                      OFFSET 2.54314 0 0
                      CHANNELS 3 Zrotation Xrotation Yrotation
                      JOINT Character1_LeftHandThumb4
                      {
                        OFFSET 2.66675 0 0
                        CHANNELS 3 Zrotation Xrotation Yrotation
                        End Site
                        {
                          OFFSET 0 0 0
                        }
                      }
                    }
                  }
                }
                JOINT Character1_LeftHandIndex1
                {
                  OFFSET 8.82198 0.199729 3.47167
                  CHANNELS 3 Zrotation Xrotation Yrotation
                  JOINT Character1_LeftHandIndex2
                  {
                    OFFSET 4.22532 0 -0.00026266
                    CHANNELS 3 Zrotation Xrotation Yrotation
                    JOINT Character1_LeftHandIndex3
                    {
                      OFFSET 2.65394 0 -0.000165164
                      CHANNELS 3 Zrotation Xrotation Yrotation
                      JOINT Character1_LeftHandIndex4
                      {
                        OFFSET 1.95822 0 -0.000122166
                        CHANNELS 3 Zrotation Xrotation Yrotation
                        End Site
                        {
                          OFFSET 0 0 0
                        }
                      }
                    }
                  }
                }
                JOINT Character1_LeftHandMiddle1
                {
                  OFFSET 8.80988 0.50089 1.30468
                  CHANNELS 3 Zrotation Xrotation Yrotation
                  JOINT Character1_LeftHandMiddle2
                  {
                    OFFSET 4.86325 0 0
                    CHANNELS 3 Zrotation Xrotation Yrotation
                    JOINT Character1_LeftHandMiddle3
                    {
                      OFFSET 2.76524 0 0
                      CHANNELS 3 Zrotation Xrotation Yrotation
                      JOINT Character1_LeftHandMiddle4
                      {
                        OFFSET 2.00563 0 0
                        CHANNELS 3 Zrotation Xrotation Yrotation
                        End Site
                        {
                          OFFSET 0 0 0
                        }
                      }
                    }
                  }
                }
                JOINT Character1_LeftHandRing1
                {
                  OFFSET 8.89376 0.37992 -0.793159
                  CHANNELS 3 Zrotation Xrotation Yrotation
                  JOINT Character1_LeftHandRing2
                  {
                    OFFSET 4.53776 0 -0.000282138
                    CHANNELS 3 Zrotation Xrotation Yrotation
                    JOINT Character1_LeftHandRing3
                    {
                      OFFSET 2.30453 0 -0.000143448
                      CHANNELS 3 Zrotation Xrotation Yrotation
                      JOINT Character1_LeftHandRing4
                      {
                        OFFSET 1.92335 0 -0.00012044
                        CHANNELS 3 Zrotation Xrotation Yrotation
                        End Site
                        {
                          OFFSET 0 0 0
                        }
                      }
                    }
                  }
                }
                JOINT Character1_LeftHandPinky1
                {
                  OFFSET 8.88227 -0.313027 -2.49036
                  CHANNELS 3 Zrotation Xrotation Yrotation
                  JOINT Character1_LeftHandPinky2
                  {
                    OFFSET 3.0441 0 0
                    CHANNELS 3 Zrotation Xrotation Yrotation
                    JOINT Character1_LeftHandPinky3
                    {
                      OFFSET 1.9745 0 0
                      CHANNELS 3 Zrotation Xrotation Yrotation
                      JOINT Character1_LeftHandPinky4
                      {
                        OFFSET 1.66661 0 0
                        CHANNELS 3 Zrotation Xrotation Yrotation
                        End Site
                        {
                          OFFSET 0 0 0
                        }
                      }
                    }
                  }
                }
              }
            }
          }
        }
        JOINT Character1_RightShoulder
        {
          OFFSET -7 14.2552 0
          CHANNELS 3 Zrotation Xrotation Yrotation
          JOINT Character1_RightArm
          {
            OFFSET -10.7073 0 0
            CHANNELS 3 Zrotation Xrotation Yrotation
            JOINT Character1_RightForeArm
            {
              OFFSET -27.3056 0 0
              CHANNELS 3 Zrotation Xrotation Yrotation
              JOINT Character1_RightHand
              {
                OFFSET -26.697 0 0
                CHANNELS 3 Zrotation Xrotation Yrotation
                JOINT Character1_RightHandThumb1
                {
                  OFFSET -4.34838 -0.798498 4.28281
                  CHANNELS 3 Zrotation Xrotation Yrotation
                  JOINT Character1_RightHandThumb2
                  {
                    OFFSET -2.51253 -0.536099 0.707677
                    CHANNELS 3 Zrotation Xrotation Yrotation
                    JOINT Character1_RightHandThumb3
                    {
                      OFFSET -2.54159 0 0.0888203
                      CHANNELS 3 Zrotation Xrotation Yrotation
                      JOINT Character1_RightHandThumb4
                      {
                        OFFSET -2.66512 0 0.0931373
                        CHANNELS 3 Zrotation Xrotation Yrotation
                        End Site
                        {
                          OFFSET 0 0 0
                        }
                      }
                    }
                  }
                }
                JOINT Character1_RightHandIndex1
                {
                  OFFSET -8.82167 0.199734 3.47244
                  CHANNELS 3 Zrotation Xrotation Yrotation
                  JOINT Character1_RightHandIndex2
                  {
                    OFFSET -4.22532 0 0.0001146
                    CHANNELS 3 Zrotation Xrotation Yrotation
                    JOINT Character1_RightHandIndex3
                    {
                      OFFSET -2.65394 0 7.1964e-005
                      CHANNELS 3 Zrotation Xrotation Yrotation
                      JOINT Character1_RightHandIndex4
                      {
                        OFFSET -1.95822 0 5.30971e-005
                        CHANNELS 3 Zrotation Xrotation Yrotation
                        End Site
                        {
                          OFFSET 0 0 0
                        }
                      }
                    }
                  }
                }
                JOINT Character1_RightHandMiddle1
                {
                  OFFSET -8.80977 0.500893 1.30546
                  CHANNELS 3 Zrotation Xrotation Yrotation
                  JOINT Character1_RightHandMiddle2
                  {
                    OFFSET -4.86325 0 0.000131883
                    CHANNELS 3 Zrotation Xrotation Yrotation
                    JOINT Character1_RightHandMiddle3
                    {
                      OFFSET -2.76524 0 7.49843e-005
                      CHANNELS 3 Zrotation Xrotation Yrotation
                      JOINT Character1_RightHandMiddle4
                      {
                        OFFSET -2.00563 0 5.4389e-005
                        CHANNELS 3 Zrotation Xrotation Yrotation
                        End Site
                        {
                          OFFSET 0 0 0
                        }
                      }
                    }
                  }
                }
                JOINT Character1_RightHandRing1
                {
                  OFFSET -8.89383 0.37992 -0.792377
                  CHANNELS 3 Zrotation Xrotation Yrotation
                  JOINT Character1_RightHandRing2
                  {
                    OFFSET -4.53776 0 0.000123053
                    CHANNELS 3 Zrotation Xrotation Yrotation
                    JOINT Character1_RightHandRing3
                    {
                      OFFSET -2.30453 0 6.24935e-005
                      CHANNELS 3 Zrotation Xrotation Yrotation
                      JOINT Character1_RightHandRing4
                      {
                        OFFSET -1.92335 0 5.21553e-005
                        CHANNELS 3 Zrotation Xrotation Yrotation
                        End Site
                        {
                          OFFSET 0 0 0
                        }
                      }
                    }
                  }
                }
                JOINT Character1_RightHandPinky1
                {
                  OFFSET -8.8825 -0.313028 -2.48957
                  CHANNELS 3 Zrotation Xrotation Yrotation
                  JOINT Character1_RightHandPinky2
                  {
                    OFFSET -3.0478 0 8.26503e-005
                    CHANNELS 3 Zrotation Xrotation Yrotation
                    JOINT Character1_RightHandPinky3
                    {
                      OFFSET -1.9769 0 5.36133e-005
                      CHANNELS 3 Zrotation Xrotation Yrotation
                      JOINT Character1_RightHandPinky4
                      {
                        OFFSET -1.66864 0 4.52451e-005
                        CHANNELS 3 Zrotation Xrotation Yrotation
                        End Site
                        {
                          OFFSET 0 0 0
                        }
                      }
                    }
                  }
                }
              }
            }
          }
        }
        JOINT Character1_Neck
        {
          OFFSET 0 12.6667 0
          CHANNELS 3 Zrotation Xrotation Yrotation
          JOINT Character1_Head
          {
            OFFSET 0 20 0
            CHANNELS 3 Zrotation Xrotation Yrotation
            End Site
            {
              OFFSET 0 0 0
            }
          }
        }
      }
    }
  }
  JOINT TorsoBox
  {
    OFFSET 0 6.37996 0.149191
    CHANNELS 3 Zrotation Xrotation Yrotation
    End Site
    {
      OFFSET 0 0 0
    }
  }
}
MOTION
Frames:	4
Frame Time:	0.00833333
-289.784 97.874 198.366 -3.03316 4.09429 -9.99998 11.7622 -14.6232 20.4925 0.0134416 27.8082 0.249709 -3.90203 -14.5987 -1.50755 0.000600863 0.000225746 0.0103648 -1.38819e-018 -1.76221e-018 1.89534e-015 9.47669e-016 2.63201e-015 1.89534e-015 6.39635e-032 2.48623e-015 -1.47406e-015 -0.865069 -13.3829 -1.40808 0.00140101 19.9098 0.034836 4.37515 -9.90375 -2.78333 0.00262116 0.00282841 9.78557e-005 1.3738e-019 -8.26038e-020 0.00480039 -1.18459e-015 1.316e-015 1.89534e-015 1.10554e-015 -1.24311e-015 -1.47406e-015 3.67092 3.33909 0.678934 0.18764 2.95577 1.48244 -0.104879 2.63981 1.58748 -1.23493 3.29612 -1.46218 -67.2681 26.631 9.32711 -0.000243933 -2.02277e-005 -39.1897 0.660811 5.47487 1.64563 -3.69096e-005 -1.03628e-005 2.35394e-006 -0.000285491 1.97622e-005 2.03647e-005 0.000287745 -6.17458e-006 -2.95377e-005 -2.73123e-006 6.07768e-006 4.97055e-006 -0.000345031 -3.63239e-005 -1.99999 -1.87854e-006 4.10117e-007 4.39574e-006 6.55678e-006 5.6052e-006 7.7336e-006 -1.44617e-005 2.38596e-005 4.63416e-006 -2.73003e-005 -9.30025e-007 -0.00356354 -0.000104008 -3.27675e-006 -2.87662e-006 8.83856e-006 6.28062e-007 3.74229e-006 2.3031e-005 1.53505e-005 1.85515e-005 -5.11664e-005 -1.26728e-006 -0.00358161 -5.70542e-005 -4.58753e-006 3.57082e-005 1.43852e-005 -2.30254e-005 8.14128e-006 -5.28912e-006 3.62342e-005 -5.91285e-006 0.000720812 -1.84362e-005 -4.27934e-006 -0.000133799 -1.7389e-006 4.32201e-006 -8.07974e-007 -3.61485e-006 -2.24134e-005 1.2924e-005 -3.05057e-006 2.0191e-005 -3.9098 3.52213 7.44016 73.6474 26.6713 -14.5123 -0.00137613 2.56607e-005 24.8992 2.97678 6.46843 -2.79326 1.50763e-007 -1.99484e-006 2.34056e-006 -0.000565067 -1.49017e-006 1.50629e-005 0.000201051 -2.04604e-006 -8.10723e-007 -1.9563e-005 -3.15358e-006 -1.99232e-005 -3.44065e-006 -7.17425e-006 -2.00006 0.000114164 2.36713e-006 -5.19865e-006 -1.82053e-005 9.23803e-007 -6.88957e-006 -3.52333e-006 -6.68276e-006 -1.16753e-006 4.64553e-006 -4.09211e-006 -2.00006 0.000189022 1.08642e-005 -1.14554e-006 -2.00018e-007 -9.22249e-007 1.69523e-005 -1.21731e-005 -1.40114e-005 -1.95258e-005 2.16068e-005 -1.05289e-005 -2.00006 2.39629e-006 1.57635e-005 1.53054e-005 4.53234e-007 -2.09394e-005 -8.08167e-006 -2.94498e-005 -4.68533e-006 -1.83337e-005 0.00121992 -1.55134e-005 -2.00005 0.000210546 5.18807e-006 4.65516e-008 1.07832e-006 -2.08186e-006 -2.35962e-006 -2.93393e-006 3.68254e-006 -8.79692e-006 -2.08564 -7.59347 2.08102 2.63887 -4.18273 7.33008 6.42922e-016 0 -0 
-289.791 97.8742 198.433 -3.01521 4.29915 -9.90415 11.7569 -14.8204 20.4214 0.0134416 27.8082 0.249709 -3.90268 -14.6224 -1.50771 0.000600863 0.000225746 0.0103648 -4.62729e-019 -3.52443e-018 3.79067e-015 -4.73834e-016 -2.63201e-015 -1.89534e-015 -1.10554e-015 0 -2.94811e-015 -0.862241 -13.5369 -1.4347 0.00141563 19.8872 0.0348311 4.38142 -9.93607 -2.84469 0.00262116 0.00282841 9.78557e-005 -1.66293e-019 0 0.00480039 0 0 -1.89534e-015 3.68514e-016 0 -2.94811e-015 3.64102 3.30947 0.672621 0.192661 3.02991 1.44839 -0.0938094 2.63332 1.56195 -1.10235 3.2066 -1.56649 -67.0664 26.1552 9.01641 -0.00024419 -2.0015e-005 -39.9229 0.858064 5.15316 1.34501 -3.69096e-005 -1.03628e-005 2.35394e-006 -0.000285491 1.97622e-005 2.03647e-005 0.000287745 -6.17459e-006 -2.95377e-005 -2.73123e-006 6.07768e-006 4.97055e-006 -0.000345031 -3.63239e-005 -1.99999 -1.87854e-006 4.10117e-007 4.39574e-006 6.55678e-006 5.6052e-006 7.7336e-006 -1.44617e-005 2.38596e-005 4.63416e-006 -2.73003e-005 -9.30025e-007 -0.00356354 -0.000104008 -3.27675e-006 -2.87662e-006 8.83856e-006 6.28062e-007 3.74229e-006 2.3031e-005 1.53505e-005 1.85515e-005 -5.11664e-005 -1.26728e-006 -0.00358161 -5.70542e-005 -4.58753e-006 3.57082e-005 1.43852e-005 -2.30254e-005 8.14128e-006 -5.28912e-006 3.62342e-005 -5.91285e-006 0.000720812 -1.84362e-005 -4.27934e-006 -0.000133799 -1.7389e-006 4.32201e-006 -8.07974e-007 -3.61485e-006 -2.24134e-005 1.2924e-005 -3.05057e-006 2.0191e-005 -3.95441 3.52189 7.46996 73.7308 26.7245 -14.4595 -0.00137642 2.55239e-005 25.5495 2.57551 6.32186 -2.57745 1.50763e-007 -1.99484e-006 2.34056e-006 -0.000565067 -1.49017e-006 1.50629e-005 0.000201051 -2.04604e-006 -8.10723e-007 -1.9563e-005 -3.15358e-006 -1.99232e-005 -3.44065e-006 -7.17425e-006 -2.00006 0.000114164 2.36713e-006 -5.19865e-006 -1.82053e-005 9.23803e-007 -6.88957e-006 -3.52333e-006 -6.68276e-006 -1.16753e-006 4.64553e-006 -4.09211e-006 -2.00006 0.000189022 1.08642e-005 -1.14554e-006 -2.00018e-007 -9.22249e-007 1.69523e-005 -1.21731e-005 -1.40114e-005 -1.95258e-005 2.16068e-005 -1.05289e-005 -2.00006 2.39629e-006 1.57635e-005 1.53054e-005 4.53234e-007 -2.09394e-005 -8.08167e-006 -2.94498e-005 -4.68533e-006 -1.83337e-005 0.00121992 -1.55134e-005 -2.00005 0.000210546 5.18807e-006 4.65516e-008 1.07832e-006 -2.08186e-006 -2.35962e-006 -2.93393e-006 3.68254e-006 -8.79692e-006 -2.09151 -7.79895 2.08203 2.67876 -4.25674 7.33079 5.14338e-016 0 -2.05735e-015 
-289.798 97.8744 198.499 -2.99797 4.50406 -9.8084 11.7515 -15.017 20.3501 0.0134416 27.8082 0.249709 -3.90332 -14.6458 -1.50787 0.000600863 0.000225746 0.0103648 -5.78411e-019 8.81107e-019 -1.89534e-015 -9.47669e-016 0 1.89534e-015 3.68514e-016 -2.48623e-015 1.47406e-015 -0.859301 -13.6853 -1.46131 0.00143402 19.8588 0.0348248 4.38761 -9.96828 -2.90603 0.00262116 0.00282841 9.78557e-005 5.78434e-020 -2.75346e-020 0.00480039 -4.73834e-016 1.316e-015 1.89534e-015 -1.27927e-031 -2.48623e-015 -2.94811e-015 3.61114 3.27989 0.666303 0.197695 3.10405 1.41432 -0.0827603 2.62682 1.53642 -0.970078 3.11709 -1.67077 -66.8663 25.6706 8.70456 -0.000244445 -1.9799e-005 -40.6562 1.05257 4.83185 1.04454 -3.69096e-005 -1.03628e-005 2.35394e-006 -0.000285491 1.97622e-005 2.03647e-005 0.000287745 -6.17458e-006 -2.95377e-005 -2.73123e-006 6.07768e-006 4.97055e-006 -0.000345031 -3.63239e-005 -1.99999 -1.87854e-006 4.10117e-007 4.39574e-006 6.55678e-006 5.6052e-006 7.7336e-006 -1.44617e-005 2.38596e-005 4.63416e-006 -2.73003e-005 -9.30025e-007 -0.00356354 -0.000104008 -3.27675e-006 -2.87662e-006 8.83856e-006 6.28062e-007 3.74229e-006 2.3031e-005 1.53505e-005 1.85515e-005 -5.11664e-005 -1.26728e-006 -0.00358161 -5.70542e-005 -4.58753e-006 3.57082e-005 1.43852e-005 -2.30254e-005 8.14128e-006 -5.28912e-006 3.62342e-005 -5.91285e-006 0.000720812 -1.84362e-005 -4.27934e-006 -0.000133799 -1.7389e-006 4.32201e-006 -8.07974e-007 -3.61485e-006 -2.24134e-005 1.2924e-005 -3.05057e-006 2.0191e-005 -3.99901 3.52165 7.49977 73.8111 26.7716 -14.4025 -0.0013767 2.53838e-005 26.1997 2.17503 6.17531 -2.36223 1.50763e-007 -1.99484e-006 2.34056e-006 -0.000565067 -1.49017e-006 1.50629e-005 0.000201051 -2.04604e-006 -8.10723e-007 -1.9563e-005 -3.15358e-006 -1.99232e-005 -3.44065e-006 -7.17425e-006 -2.00006 0.000114164 2.36713e-006 -5.19865e-006 -1.82053e-005 9.23803e-007 -6.88957e-006 -3.52333e-006 -6.68276e-006 -1.16753e-006 4.64553e-006 -4.09211e-006 -2.00006 0.000189022 1.08642e-005 -1.14554e-006 -2.00018e-007 -9.22249e-007 1.69523e-005 -1.21731e-005 -1.40114e-005 -1.95258e-005 2.16068e-005 -1.05289e-005 -2.00006 2.39629e-006 1.57635e-005 1.53054e-005 4.53234e-007 -2.09394e-005 -8.08167e-006 -2.94498e-005 -4.68533e-006 -1.83337e-005 0.00121992 -1.55134e-005 -2.00005 0.000210546 5.18807e-006 4.65516e-008 1.07832e-006 -2.08186e-006 -2.35962e-006 -2.93393e-006 3.68254e-006 -8.79692e-006 -2.09735 -8.00445 2.08307 2.71866 -4.33075 7.3315 -1.28584e-015 -1.9507e-015 -0 
-289.805 97.8746 198.566 -2.98141 4.70905 -9.71272 11.7462 -15.2135 20.2789 0.0134416 27.8082 0.249709 -3.90396 -14.6695 -1.50803 0.000600863 0.000225746 0.0103648 -5.78411e-020 0 -0 8.70665e-032 2.63201e-015 -1.89534e-015 -1.47406e-015 0 2.94811e-015 -0.857143 -13.7669 -1.48811 0.00149607 19.7627 0.0348038 4.39391 -9.99947 -2.96741 0.00262116 0.00282841 9.78557e-005 5.06112e-019 -2.75346e-020 0.00480039 1.18459e-015 1.316e-015 -0 3.68514e-016 0 -0 3.58125 3.2503 0.659981 0.202727 3.17819 1.38024 -0.0717065 2.62033 1.51089 -0.838126 3.02756 -1.77505 -66.6804 25.1996 8.4044 -0.000244697 -1.95798e-005 -41.3895 1.24425 4.51098 0.744132 -3.69096e-005 -1.03628e-005 2.35394e-006 -0.000285491 1.97622e-005 2.03647e-005 0.000287745 -6.17459e-006 -2.95377e-005 -2.73123e-006 6.07768e-006 4.97055e-006 -0.000345031 -3.63239e-005 -1.99999 -1.87854e-006 4.10117e-007 4.39574e-006 6.55678e-006 5.6052e-006 7.7336e-006 -1.44617e-005 2.38596e-005 4.63416e-006 -2.73003e-005 -9.30025e-007 -0.00356354 -0.000104008 -3.27675e-006 -2.87662e-006 8.83856e-006 6.28062e-007 3.74229e-006 2.3031e-005 1.53505e-005 1.85515e-005 -5.11664e-005 -1.26728e-006 -0.00358161 -5.70542e-005 -4.58753e-006 3.57082e-005 1.43852e-005 -2.30254e-005 8.14128e-006 -5.28912e-006 3.62342e-005 -5.91285e-006 0.000720812 -1.84362e-005 -4.27934e-006 -0.000133799 -1.7389e-006 4.32201e-006 -8.07974e-007 -3.61485e-006 -2.24134e-005 1.2924e-005 -3.05057e-006 2.0191e-005 -4.04362 3.52141 7.52957 73.8973 26.831 -14.3538 -0.00137699 2.52404e-005 26.85 1.77525 6.0288 -2.14764 1.50763e-007 -1.99484e-006 2.34056e-006 -0.000565067 -1.49017e-006 1.50629e-005 0.000201051 -2.04604e-006 -8.10723e-007 -1.9563e-005 -3.15358e-006 -1.99232e-005 -3.44065e-006 -7.17425e-006 -2.00006 0.000114164 2.36713e-006 -5.19865e-006 -1.82053e-005 9.23803e-007 -6.88957e-006 -3.52333e-006 -6.68276e-006 -1.16753e-006 4.64553e-006 -4.09211e-006 -2.00006 0.000189022 1.08642e-005 -1.14554e-006 -2.00018e-007 -9.22249e-007 1.69523e-005 -1.21731e-005 -1.40114e-005 -1.95258e-005 2.16068e-005 -1.05289e-005 -2.00006 2.39629e-006 1.57635e-005 1.53054e-005 4.53234e-007 -2.09394e-005 -8.08167e-006 -2.94498e-005 -4.68533e-006 -1.83337e-005 0.00121992 -1.55134e-005 -2.00005 0.000210546 5.18807e-006 4.65516e-008 1.07832e-006 -2.08186e-006 -2.35962e-006 -2.93393e-006 3.68254e-006 -8.79692e-006 -2.10317 -8.20995 2.08414 2.75856 -4.40476 7.33223 6.42922e-016 0 -0 
